<svg xmlns="http://www.w3.org/2000/svg" width="32" height="32" viewBox="0 0 32 32">
  <defs>
    <linearGradient id="gradient" x1="0%" y1="0%" x2="100%" y2="100%">
      <stop offset="0%" style="stop-color:#8B4513"/>
      <stop offset="100%" style="stop-color:#D2691E"/>
    </linearGradient>
  </defs>
  <path fill="url(#gradient)" d="M24 14c0-6-4-8-8-8s-8 2-8 8c0 3 2 6 4 7v2c0 2.5 1.5 4 4 4s4-1.5 4-4v-2c2-1 4-4 4-7zm4 2h-4c-.5 0-1 .5-1 1v2c0 .5.5 1 1 1h4c1.5 0 2-1.5 2-3s-.5-3-2-3z"/>
  <path fill="#FFD700" d="M20 23v-2c2-1 4-4 4-7 0-6-4-8-8-8v20c2.5 0 4-1.5 4-3z" opacity="0.3"/>
</svg>